<svg width="256" height="256" viewBox="0 0 256 256" fill="none" xmlns="http://www.w3.org/2000/svg">
  <defs>
    <linearGradient id="iconBg" x1="28" y1="20" x2="220" y2="236" gradientUnits="userSpaceOnUse">
      <stop stop-color="#09111F"/>
      <stop offset="1" stop-color="#040812"/>
    </linearGradient>
    <linearGradient id="iconBack" x1="38" y1="40" x2="140" y2="172" gradientUnits="userSpaceOnUse">
      <stop stop-color="#22D3EE"/>
      <stop offset="1" stop-color="#6366F1"/>
    </linearGradient>
    <linearGradient id="iconFront" x1="86" y1="60" x2="184" y2="198" gradientUnits="userSpaceOnUse">
      <stop stop-color="#8B5CF6"/>
      <stop offset="1" stop-color="#FB7185"/>
    </linearGradient>
  </defs>

  <rect width="256" height="256" rx="56" fill="url(#iconBg)"/>

  <g transform="translate(18 18)">
    <g transform="rotate(-8 82 90)">
      <rect x="18" y="18" width="112" height="146" rx="22" fill="#08111F" fill-opacity="0.18"/>
      <rect x="18" y="18" width="112" height="146" rx="22" stroke="url(#iconBack)" stroke-width="4"/>
    </g>

    <g transform="translate(24 16) rotate(7 92 96)">
      <rect x="38" y="26" width="118" height="154" rx="24" fill="url(#iconFront)"/>
      <rect x="38" y="26" width="118" height="154" rx="24" stroke="white" stroke-opacity="0.12" stroke-width="2.5"/>
      <path d="M97 60L121 84L97 108L73 84L97 60Z" fill="#08111F" fill-opacity="0.74"/>
      <circle cx="97" cy="84" r="8.5" fill="#22D3EE"/>
      <path d="M79 133C87 121 98 114 108 114C118 114 129 121 137 133" stroke="#08111F" stroke-width="8" stroke-linecap="round"/>
    </g>
  </g>
</svg>
