<?xml version="1.0" encoding="UTF-8"?>
<!-- Created with Inkscape (http://www.inkscape.org/) -->
<svg version="1.1" viewBox="0 0 666.89 677.11" xmlns="http://www.w3.org/2000/svg">
 <path d="m17.872 676.45c-9.0485-3.8286 15.682-24.005 21.979-29.217 16.205-12.986-17.388-30.816-14.779-51.746 5.2112-2.4166-4.6183-11.993-2.6371-26.247-1.741-14.742-2.5496-24.642-6.4137-36.582-5.9721-12.873-14.106-28.006 4.0451-12.074 38.12 20.243 48.418 71.618 91.25 85.918 24.968 10.311-13.439-25.207-11.258-36.871-2.9538-11.369-6.7718-15.57-10.11-29.376-3.1077-16.443-11.49-33.466-15.397-44.735-4.3171-8.1524-10.455-18.52-21.701-24.646-6.0527-5.0968-10.369-5.8856-19.865-8.6397-9.8172-5.8787-28.263 9.477-28.312 3.7694 7.9703-6.6142 16.772-10.743 23.802-19.468 7.9249-10.438 27.26-4.605 29.716-19.846 8.5077-4.3144 16.879-26.449 3.3653-11.522-11.802 15.074-33.733 15.837-51.346 14.235 14.982-11.988 22.159-16.188 25.516-34.391.85804-9.3709-1.5032-20.147.58216-30.122 2.8821-20.467 13.215-41.176 7.544-61.801.54348-9.7024-1.8271-14.17-7.1474-25.372-1.6374-10.951-14.061-22.337-21.415-34.113-3.1004-10.072-10.945-12.759-12.025-26.316-.7802-15.33 1.5038-25.27 5.1601-38.729 12.453-8.1415 10.997-23.744 13.668-34.56-1.6122-15.249 1.7607-27.268 6.6192-42.114 3.8235-14.412 13.982-24.365 22.305-36.922-5.495-15.509-20.673 1.8517-31.329-3.3422-15.749-2.6282-22.244-24.225-18.782-36.091 3.4671-13.863 18.85-28.767 35.779-25.387 16.147 1.3881 25.657 18.065 26.176 33.046 19.272-2.9564 39.688-8.0698 57.765-13.46 24.705-4.6907 54.123-8.3271 80.651-10.114 92.123-7.6562 184.58.72911 276.88-1.7689 41.166.72632 82.938-1.9776 123.82.29663 9.3619.16164 25.456-2.5469 37.496-.22817 15.026.85597 26.825 13.797 25.413 28.936.30266 20.421.60533 40.841.90799 61.262-1.1811-1.4841 7.2762 30.592-7.7857 22.33-20.616-25.476-2.2544 17.31-22.04 11.497-8.1654-.0126-17.506-.0441-29.556.67204-13.192-1.9685-42.808 2.4943-45.022-3.9888 26.25-1.2726 54.054 1.8786 79.512-1.0074 3.0682-8.1059 1.4199-21.576.71498-29.582-37.136-.70972-74.263-1.7594-111.38.26137.26799 12.951-6.7832 36.181 13.62 29.994 17.648-1.9229 15.474 4.9732-.75585 3.2108-13.375 3.876-20.752-3.2508-16.632-16.791 5.9739-16.706-2.913-27.17-14.651-37.4-8.3873 4.6454-19.78 8.054-30.02 4.1773-22.359 17.971 7.9608 9.4037 18.455 14.198 2.2923 11.329-.12678 23.797.41769 35.549-13.19.34043-26.379.68085-39.569 1.0213-.97128 14.225 6.0452 30.848 22.642 25.83 26.969.59494 54.735-.72917 81.216 1.0378 1.7588 11.127.47763 23.535 1.0896 35.145-15.016 4.3068-32.49.49014-48.471 1.6062-15.42.75081-32.226-1.8748-46.826.87574-10.809 27.467 35.581.61043 29.607 24.434 7.7166 24.382-4.3302 29.34-24.449 25.368-5.2786 14.826 18.746 12.23 14.277 20.534-1.868 7.7795 20.793 1.4485 28.462 3.26 14.567 4.1452 51.244-11.953 45.198 13.842 10.378 35.087-30.994 18.87-51.808 22.277-9.9341 1.5541-26.018-3.0271-32.044 2.4256-.47755 13.987 11.964 22.213 21.074 26.519 1.2354 19.389 1.4569 44.952 18.974 55.825 14.275.37941 39.513-5.856 47.271 3.3428-1.4349 9.5094 2.7426 24.44-1.9002 30.851-21.87-4.6374-16.449 10.312-7.5541 24.955 17.237-.98707-7.7984 7.777 6.346 22.979-.0458 16.443 20.313 11.084 24.924 10.629 16.212-.60127 33.697 1.9205 49.161-.51677.33308-8.0242 3.9203-25.736-2.5518-29.65-22.977-.41976-45.957-.58264-68.936-.85839 3.9326-5.6452 20.8-1.7011 30.22-2.8055 15.124.79115 31.43-1.2454 45.821 1.3019-.62219 10.973 8.384 38.719-9.934 36.049-21.556 1.9368-43.816-1.3884-65.031.6266 3.5829 24.955 3.0994 56.246 14.494 80.714 19.964-.16548 39.917.5907 59.863 1.3385-.25141 10.156 8.1478 34.648-6.0626 34.452-10.676 5.3824-47.051-7.6834-42.562 8.161 3.7057 11.167 20.253 2.4312 29.589 4.8707 16.409-3.6189 24.145 1.5583 20.284 19.231-1.3464 11.979 35.645-15.68 12.496 6.4653-13.104 5.6378-37.75 26.771-59.561 26.262-22.961 5.5419-50.205 6.6144-70.994-7.036-6.6537-5.784-13.227-5.0899-21.176-11.359-18.404-19.115-46.773 2.8681-58.893 19.659-13.786 9.6905-18.177-35.996-39.257-11.992-41.71 16.386-88.925 14.759-130.48-1.3-10.988 7.1147-22.808 10.906-36.781 12.817-33.869 2.9663-68.128 2.3642-102.02 1.1852-26.01-4.8897-54.326-4.1325-79.628-2.5467-12.95 3.0934-26.427 3.8256-39.319 7.3927zm169.02-9.1894c36.549-1.1403 74.441-3.5578 105.19-25.941 6.1425-2.0022 27.213-23.093 21.169-9.994-5.0271 5.4604-20.424 19.977-10.875 24.838 38.093 9.5752 79.9 9.776 115.47-8.7387 7.2692-5.5231 30-28.834 18.163-7.0779-4.3414 7.3795-.22647 23.584 6.1856 24.358 11.234-17.488 33.322-19.636 47.453-33.464 17.276 13.939 34.187 27.606 58.447 31.523 30.179 6.6714-8.543-18.203-16.412-25.393-8.7316-11.624-29.068-16.126-34.329-25.486 21.346.0638 44.939 24.738 62.23 38.902 15.446 13.184 36.956 9.9479 54.706 4.3618-7.614-11.292-21.958-17.963-24.354-33.263-26.555-49.352-20.739-107.63-37.297-160.11-5.7705-24.891-19.618-60.73-44.372-67.483-3.8618 11.678-4.023 28.802-.68915 39.213 15.537 9.3135-7.9134 54.825-8.6739 22.05-7.5886-39.025 11.758-83.831-14.123-118.66-7.3114-8.4258-23.136-.81514-25.222-13.11 7.204-11.178 11.808-25.591 4.8674-38.16-7.2075-13.592-13.139-10.354-20.863-8.3703-9.2601-3.0252-20.378 2.4511-30.664.63389-14.198 1.5555 7.4034-21.116-12.113-17.228-1.7586 6.6876-2.8728 24.769 6.8989 24.982 7.8101-2.3396 29.916 4.4378 23.927 12.726-22.993-12.231-23.189-2.5927-11.476 16.541-.10094 14.55 17.063 36.229 27.55 17.696 7.3428-13.953 11.126 14.305 7.8995 20.482-4.8967 8.5449-13.778-12.601-28.189-8.215-11.144-17.41-16.521 10.743-28.596 12.73-14.328-3.2924-25.952-14.035-41.364-10.02-13.035-.70423 16.813-12.202 13.912-16.855 9.6141 6.8395 20.751 21.143 32.644 11.399 23.251-13.426 7.8672-35.842-6.4522-49.626-10.306-9.3834-4.1668-24.39-11.414-35.635-9.3311-14.341-3.1689-31.88-2.5639-47.788 4.9149-16.508 19.778-24.959-.52737-30.355 12.834-6.1998 38.744-.72371 54.603 5.8269 36.019 26.451 15.357-24.593 17.329-43.614-2.2496-18.586 1.7727-43.493-21.443-50.482-16.299-7.7656-27.955-14.737-43.915-20.879-58.416-21.166-122.52-17.396-182.87-7.32-28.201 3.4152-53.136 17.43-78.159 29.841-7.5284 2.0125-25.303 13.508-37.56 19.012-8.0168 5.0403-31.629 20.429-44.252 31.536-17.162 19.129-40.808 40.071-34.844 68.41 4.0814 28.452 30.072 47.721 42.043 72.861 11.784 17.889 23.379-11.073 32.328-18.919 19.214-18.426 41.472-36.807 65.564-46.07-9.4485 12.618-27.071 24.248-37.465 38.317-4.501 8.4806-9.6932 19.392-2.1087 27.663-.0744 7.5056 18.809 24.824 23.542 37.334 10.722 7.2681 23.134 16.513 36.851 13.506-11.907-18.101-13.137-39.574-12.413-60.333-6.8855-14.451-1.5229-31.666 3.6702-9.2385 4.2814 11.15.47155 24.302 5.6251 35.026 17.871-12.363 1.4122-33.849 1.3455-50.477-4.5427-20.695 10.163-23.508 7.1072-2.0396.64555 12.361 7.0212 53.205 16.095 23.493 3.9874-17.619-5.3123-36.37-1.0732-53.124-.69768-8.6477 12.445-30.061 4.8686-7.1386-1.1698 14.892.47032 29.453 4.2754 43.774 4.5613 24.58-20.508 40.274-27.544 61.07-6.452 13.812 22.575 19.687 15.463 26.609-19.946-.75851-41.984-1.5932-57.335-15.538-7.9537-3.952-12.767-13.657-18.175-20.766-6.9091-11.86-13.966-28.574-30.34-26.355-14.53 4.0743 26.557 12.758-2.0934 11.376-12.359 1.274-31.896 5.0632-28.014 21.534-2.5534 16.498 3.8831 31.326 10.197 46.174 6.3456 15.519 18.267 31.146 36.354 30.106 13.905 5.8246 20.007 25.3 36.026 25.918 10.074-3.5617 22.438-14.351 16.222-25.265-7.5582-14.736 6.0614-24.324 9.6752-2.4785 6.0536 19.284-11.387 34.79-13.588 53.423-10.806 11.763 17.439 16.765 9.4081 23.184-17.93 2.484-28.668-14.658-41.426-23.5-19.345-12.555-39.225-13.854-57.779-1.7206-15.074 6.4364-30.157 17.738-7.5013 17.607 45.126 9.321 59.028 58.135 77.431 93.866 10.047 24.052 37.65 32.842 61.755 30.418 13.84 22.429-12.681 14.387-25.198 11.141-22.766-5.653-40.088-22.837-50.064-43.556-5.34-14.917-13.406-38.952-24.253-55.259-7.0048-13.141-30.249-27.767-11.274-3.6675 22.66 35.786 19.531 84.878 50.41 115.86 21.794 11.616 10.163 16.93-6.6386 12.499-15.115-3.7286-19.33-7.3732-30.182-12.427-29.18-16.47-43.29-49.228-66.656-71.997 1.1069 19.26 5.7955 39.159 6.6322 58.903 3.3977 19.148 18.553 42.47 40.716 38.669 14.532-.33834 28.336-4.018 41.924 3.8628 12.565 4.3526 24.29-5.1222 36.004-6.2761-12.537 14.338-35.068 11.331-52.687 11.925-20.444.0561-43.973-2.1916-58.991 14.876-20.887 14.509 14.966 4.2694 23.924 5.514 38.524-3.325 76.753 4.5277 115.1 6.04 2.402-.0667 4.8041-.13343 7.2061-.20015zm257.22-50.41c-7.1358-8.1341.0791-28.949 13.989-14.442 12.062 4.5024-10.5 12.259-13.989 14.442zm-147.5-18.383c-1.4753-12.982 22.89-29.853 20.03-48.334-.22385-16.627 4.4324-35.928-10.421-47.968-6.2302-9.7311-20.217-11.75-29.786-5.7928-6.908-5.3917-4.0768-20.875-3.3114-30.185 1.2855-8.3203 14.029-38.914 16.917-21.048-.22686 25.422 26.873 41.812 30.262 67.106.65588 19.108 3.1718 39.868-3.8732 58.146-6.2927 9.176-11.677 21.496-19.818 28.076zm-113.97-45.957c-5.1663-6.1398 13.669-13.902 15.778-22.272 11.466-21.489 2.3061-48.177 17.356-68.621 3.4878-6.5473 27.037-50.362 20.813-26.535-13.762 21.65-26.034 47.204-19.061 73.255 2.1177 15.992-2.9396 35.63-21.015 39.671-4.5766 1.6052-9.0592 3.6654-13.871 4.5019zm243.84-60.255c-15.535-10.959-25.822-29.764-37.649-44.848-11.45 4.1913-14.487 16.572-15.184 27.486-14-6.9466-8.3042-30.846-17.371-43.104-7.0223-12.175-29.898-11.86-30.491-28.683 1.8726-12.964 20.323-10.918 30.463-10.613 17.984-5.1588 32.461 12.849 8.3216 7.911-10.708-3.2664-22.638 16.671-7.7523 19.747 19.669 9.3227 42.321 5.4625 63.436 7.2531 1.7106 11.096-5.9452 19.17-3.0047 31.089-3.0512 11.791 13.828 25.874 9.2322 33.762zm-197.63-84.766c-7.0944-19.181-39.316 9.6261-28.794-10.719 8.485-5.9566 6.6828-17.248 8.0279-25.373 12.123-1.1409 12.748 27.226 22.723 36.092l-1.9013.00037zm-100.17-29.617c-7.2844-1.3772-14.756-11.478-24.312-14.072-11.956-9.5679-4.7678-23.036-3.9895-37.185-6.5894-10.985-22.464-6.5683-29.669-11.392 5.9487-13.876 12.06-16.839 24.815-2.485 13.63 9.7139 28.964 22.401 10.564 26.993.0937 10.184 3.2048 24.341 16.464 22.821-.26161 4.3159 10.888 12.364 6.1277 15.319zm133.26 0c-12.87.15022-14.247-25.057-2.0982-25.007 2.3396 7.6516 17.855 24.302 2.0982 25.007zm15.657-3.0638c-19.805-28.966 33.432-17.556 39.55-41.09 6.3064-9.464.71738-27.077 15.417-29.243 6.5493-7.0007 31.781 5.1817 13.401 6.9047-13.936-2.0704-19.891 14.754-10.989 24.109 9.7578 10.505-.49336 18.514-7.2396 5.524-9.0037-3.2283-29.122 22.26-43.272 28.433l-4.5559 3.7867-2.3115 1.575zm6.6833-73.532c-5.986-6.1584 31.701-26.929 20.755-13.633-7.5963 3.537-12.738 10.819-20.755 13.633zm-38.235-10.213c-3.1745-4.0684-16.806-23.674-.19304-13.893 8.6539-9.8682 20.316-25.862 37.873-22.164 16.077-3.459 39.208 2.9259 40.017 21.759-8.3394 2.5665-19.105-21.772-22.468-7.7477 16.415 9.3051-10.5 2.594-18.328 6.1055-12.405 3.4938-24.775 7.6242-34.938 15.94h-1.9013zm13.101-14.279c20.682 4.1822 19.511-20.788 4.4987-9.901.1743 1.9798-7.9791 6.9064-4.4987 9.901zm-195.62-1.6793c-16.22-14.908-28.959-38.595-37.041-60.127-2.1921-19.978 4.6612-40.02 20.493-53.156 6.4609-9.8575 35.18-23.816 15.503-5.0265-10.618 9.9773-23.347 25.077-21.142 39.289 12.734-7.3264 20.663-16.546 26.782-24.022 18.059-17.173 18.254-3.833 5.8166 7.4472-6.5848 6.523-15.911 21.409-22.779 32.835-14.901 30.464 14.687 1.9988 23.969-7.8538 5.3513-4.0946 27.095-31.257 27.45-19.735-9.6235 18.365-30.094 29.547-34.998 51.041-14.678 25.882 13.326 4.8164 20.123-3.264 4.8909-7.2135 42.025-46.305 34.009-25.631-7.6861 9.9442-15.427 13.184-20.529 21.314-13.611 14.754-24.972 31.378-37.658 46.889zm290.16-17.767c-9.1531-7.0275-18.353-26.999-11.418-36.233 8.0756 8.0064 7.9915 20.637 17.796 27.566 5.1569 3.8164-4.7577 6.9205-6.3778 8.6663zm-28.189-2.0237c-13.345-4.5815-23.578-20.465-39.886-14.744-8.3495.4717-29.697 20.397-24.493 4.8803 16.499-9.8345 37.8-16.743 55.193-4.747 5.7574 1.2067 23.207 9.2764 9.1859 14.611zm-96.414-21.466c-.45042-9.9855 11.193-30.804 24.52-37.094 13.345-7.6496 33.266-12.035 47.655-5.7352-2.0309 10.362 23.42 26.951 6.061 26.308-27.481-.74208-54.594.6157-78.236 16.521zm15.803-17.339c17.82-4.8458 35.98-6.1646 54.364-5.617-1.4076-17.722-14.516-17.623-26.649-13.747-9.7705 3.9609-26.195 8.979-27.715 19.364zm114.49-10.213c-12.895 1.3884-6.5958-35.498.28445-23.021.015 6.0409 12.866 22.746-.28445 23.021zm271.97 439c11.794 3.1735 11.852-25.649 2.2883-24.248-11.116.92067-24.302-.15544-34.137 2.0012 5.036 13.837 17.757 20.723 31.848 22.247zm-9.0891-43.338c15.218 4.2718 19.843-5.3249 17.322-19.033 4.7223-16.264-16.761-7.2626-26.359-9.7202-9.6176 1.1274-26.404-2.6671-31.637 1.4705.3805 30.495 15.446 29.518 40.674 27.283zm-489.48-164.08c12.87-1.753-.9121-17.907-9.1477-18.89-7.8106-16.995-31.523-11.756-29.168 3.2183 13.753 4.9467 18.781 11.408 31.189 14.877 2.1728 1.5694 4.677.85185 7.1262.79497zm422.67-15.064c14.638 3.6757 6.1251-16.936 9.2058-25.384-3.2133-9.5807-21.145-1.549-30.099-3.8814-22.617-1.7903 2.9156 9.5828 6.5074 19.053 3.7307 6.9246 5.7599 12.386 14.386 10.213zm-519.19-1.0213c18.636-4.06 26.58-19.046 28.814-36.667-6.3506-4.6862-6.5305-41.814-18.584-27.945-7.4336 20.385-1.8778 44.179-10.977 64.612zm483.83-118.98h40.279c-2.9122-8.7134 6.0633-28.824-5.8858-28.874-29.178-1.051-58.414-.025-87.599.2972 6.495 19.936 13.031 34.708 35.743 28.576 5.821 0 11.642-1e-5 17.463-1e-5zm-82.463-32.556c11.995-8.1567-18.164-12.093-5.9638-.33198zm41.619-1.9545c1.0426-8.853-13.76-33.258-13.418-50.424-17.484-21.201-10.92 16.381-13.239 28.043-.39124 13.149 14.188 24.768 26.658 22.381zm-38.443-8.8936c2.0338-8.9713-13.877-16.276-23.768-14.07-7.9721-3.429-20.959 2.5975-16.847 11.006 12.801-4.1867 29.515-5.611 40.615 3.0638zm50.441-15.52c12.814-1.0107 3.0932-21.243 6.1277-30.536-19.59-2.4879-34.435.73417-24.367 24.316-2.0768 9.7616 13.525 3.0973 18.24 6.2196zm-71.457-3.8839c14.814 4.7761 26.28-6.6502 23.778-21.697-8.4553-1.6056-36.146-7.4556-42.959 6.688-11.912 14.015 9.4876 16.822 19.181 15.009zm-24.616-28.206c11.577-8.0946 45.666 5.0368 41.683-10.092-8.1901-6.5944-17.775-16.719-29.04-10.788-8.9777-5.0515-25.521 23.544-12.642 20.88zm152.73-19.21c19.683 5.918 12.743-12.997 13.813-24.839.21297-13.276-20.308-4.1099-29.172-6.7881-20.797.52765-42.159-.92675-62.606.83071-.80343 10.072-7.3181 35.837 11.399 29.977 21.971.48197 45.663-.98163 66.566.81883zm-65.108-64.591c22.134 10.275 19.427-32.934 4.8788-31.491-9.6641 1.436-28.664-3.4344-26.595 11.976-1.6495 17.841.0435 23.766 21.717 19.516zm180.38-14.716c-3.9993-13.691 1.9952-39.039-1.3097-44.71.18054-9.9133-.30899-27.15 1.0723-32.382-2.0443-8.7431-6.8564-25.225-21.693-25.201-52.657-2.1779-106.18-.01397-159.11-.8561-49.56.04153-99.13-.28221-148.67 1.2059 17.584 7.5103 33.744 17.182 45.906 32.169 13.237 12.745 24.975 29.581 44.937 30.934 18.502 14.013 43.107 32.174 53.668-1.8538 7.0745-5.7788 13.231 10.952 21.995 3.4162 16.2-7.2939-2.9052-25.445-3.4353-36.356-6.4154-15.476 17.512 5.975 19.227 10.799-8.0319 14.729 6.7013 25.327 16.225 35.769 10.23 15.994 17.913-7.9789 23.865-12.482 5.1176 11.791 20.021 5.4792 23.243-9.3587 7.0537-4.3465 8.7009 20.225 20.87 15.633 12.848 6.4245 22.16-20.546 26.471.84964-2.0119 12.15 10.447 16.113 14.093 7.5935 3.6982-6.78 7.0801 25.352 22.296 24.175l.35178.65525zm-77.362-19.088c14.953 5.3087 53.695-6.8418 21.585-5.3521-15.108 4.1416-26.691-17.412-36.195-4.031-4.9855 4.0103-30.9 4.8975-15.213 9.6177 9.9409-.0782 19.882-.1564 29.823-.23461zm-559.76-41.092c14.575-.79925 34.507-14.707 26.223-30.443-2.6809-14.656-21.416-21.395-31.69-9.9644-15.57 8.0718-16.168 33.256 1.1609 39.584 1.0711 1.4837 2.8464.63012 4.3064.82308zm608.74 492.03c-11.579-6.1436-44.362 8.8204-44.486-8.4419 2.4038-9.2278-5.0724-26.209 4.1447-30.09 16.805-.0757 33.667.34969 50.494.46478-.95842 12.006 2.4383 26.144-1.0887 36.893-2.1981 2.8545-6.0956.65911-9.0639 1.1743zm-16.913-4.8756c16.136 2.318 30.108.34996 23.237-20.794 2.849-16.206-21.075-4.8758-30.585-8.2707-21.349-7.6809-15.37 17.508-14.996 29.065h22.345zm1.111-112.76c-8.5966-2.2044-26.944 5.8252-27.324-7.3962.9202-9.3034-3.784-23.807 3.9055-29.494 16.24.72885 33.05-2.4158 48.939.70098-.97252 11.938 1.5963 24.975-1.6083 36.221-7.9709-.0104-15.942-.0209-23.913-.0313zm18.576-3.6861c7.5377-5.4711.88051-20.088 2.2726-29.091-14.128-.18403-28.255-.36805-42.383-.55208.11085 14.232-7.2341 33.831 13.884 27.629 8.7249.72673 18.205-1.7932 26.227 2.014zm1.6865-57.176c-37.471-3.1265-75.396 1.126-112.78-2.5532 1.3407-11.072-3.4614-24.501 1.6656-34.121 8.6063-4.4489 21.415 1.159 31.787-.89654 27.761.24662 55.592-.79162 83.295.99548 2.4228 11.023 2.7014 23.853.88467 34.674-.36016 2.9042-3.0403 1.6242-4.8569 1.9017zm-16.265-4.4155c22.395 12.54 26.897-38.895 2.776-28.705-30.976.28685-63.286-1.9761-93.701.0713.37763 8.1201-8.6775 29.294 5.3012 27.035 28.751.69238 57.532 1.2014 85.624 1.5987zm-3.8298-55.92c-21.413 4.8554-33.108-1.9921-27.83-23.521-5.2514-16.812 12.97-12.421 23.466-12.895 16.106-1.245 36.614-4.2326 29.64 17.902 1.9926 13.267.49183 23.03-15.211 18.545-3.3553-.0107-6.7107-.0214-10.066-.0321zm-1.0455-4.2394c11.728-.0981 27.147 3.5231 21.996-13.582 4.4959-15.017-4.4712-16.783-17.347-14.703-25.017-10.039-34.251 11.809-24.474 28.537 6.6084-.0838 13.217-.16771 19.825-.25157zm-84.925-54.694c-15.932-.97899-4.9386-26.704-6.8342-36.692 36.171-.94913 73.453-1.037 109.97-.0326 15.554-2.5261 7.0027 16.635 9.1362 26.184 3.4649 21.224-32.344 5.0912-43.872 10.85-22.792-.50782-45.602-.71162-68.396-.3093zm51.447-3.9543c22.671-3.4816 64.872 12.52 56.744-23.757-10.91-12.418-45.475-1.6447-64.093-5.6762-15.745-.13208-31.489-.26417-47.234-.39625-2.3971 17.852-4.3227 36.729 18.753 29.934 11.943-.0349 23.887-.0698 35.83-.10465zm49.909-46.527c-11.735-6.1065-43.207 8.3018-44.236-8.9006.86693-10.993-8.3046-35.04 11.178-30.104 14.134 1.0543 30.16-1.3269 43.18 1.7492 1.8004 11.348.13726 23.714.62568 35.448-3.2699 2.7188-6.7881 1.9713-10.748 1.8072zm-16.73-4.8868c16.131 2.451 29.735.1931 23.535-20.526 3.1346-14.898-16.458-7.1095-25.068-9.2652-11.119-.85133-27.277-3.2084-22.095 13.431-4.2722 15.02 5.1021 19.173 18.459 16.361h5.1681z" style="fill:#2e5d3a"/>
</svg>
